{"title":"Da Vincis Demons S02E03 HDTV x264 AAC E-Subs [GWC].mp4","uid":9901356,"size":169705040,"categoryP":"video","categoryS":"tv_shows","magnet":"?xt=urn:btih:36aa9d3c4994b0cb10058d3ab41085543f43ea16&amp;dn=Da+Vincis+Demons+S02E03+HDTV+x264+AAC+E-Subs+%5BGWC%5D.mp4&amp;tr=udp%3A%2F%2Ftracker.openbittorrent.com%3A80&amp;tr=udp%3A%2F%2Fopen.demonii.com%3A1337&amp;tr=udp%3A%2F%2Ftracker.coppersurfer.tk%3A6969&amp;tr=udp%3A%2F%2Fexodus.desync.com%3A6969","seeders":1,"leechers":0,"uploader":"canc232","files":1,"time":1396776046,"description":"Da Vincis Demons S02E03 HDTV x264 AAC E-Subs [GWC]\n\n\nSTORYLINE :\nThe series follows the &quot;untold&quot; story of Leonardo Da Vinci: the genius during his early years in Renaissance Florence. As a 25-year old artist, inventor, swordsman, lover, dreamer and idealist, he struggles to live within the confines of his own reality and time as he begins to not only see the future, but invent it. \n\n\nSCREENS : &lt;a href=&quot;\nhttp://i.imgur.com/OKlGdiV.jpg&quot; rel=&quot;nofollow&quot; target=&quot;_NEW&quot;&gt;\nhttp://i.imgur.com/OKlGdiV.jpg&lt;/a&gt; &lt;a href=&quot;\nhttp://i.imgur.com/sKHGSqT.jpg&quot; rel=&quot;nofollow&quot; target=&quot;_NEW&quot;&gt;\nhttp://i.imgur.com/sKHGSqT.jpg&lt;/a&gt; &lt;a href=&quot;\nhttp://i.imgur.com/dO1f4R7.jpg&quot; rel=&quot;nofollow&quot; target=&quot;_NEW&quot;&gt;\nhttp://i.imgur.com/dO1f4R7.jpg&lt;/a&gt;\n\n\nMEDIA INFO :\nGeneral \nFormat : MPEG-4 \nFormat profile : Base Media \nFile size : 162 MiB \nDuration : 52mn 37s \nOverall bit rate mode : Variable \nOverall bit rate : 430 Kbps \n\nVideo \nFormat : AVC \nFormat profile : &lt;a class=&quot;__cf_email__&quot; href=&quot;/cdn-cgi/l/email-protection&quot; data-cfemail=&quot;ace4c5cbc4ece09f829c&quot;&gt;[email&amp;#160;protected]&lt;/a&gt;&lt;script cf-hash='f9e31' type=&quot;text/javascript&quot;&gt;\n/* &lt;![CDATA[ */!function(){try{var t=&quot;currentScript&quot;in document?document.currentScript:function(){for(var t=document.getElementsByTagName(&quot;script&quot;),e=t.length;e--;)if(t[e].getAttribute(&quot;cf-hash&quot;))return t[e]}();if(t&amp;&amp;t.previousSibling){var e,r,n,i,c=t.previousSibling,a=c.getAttribute(&quot;data-cfemail&quot;);if(a){for(e=&quot;&quot;,r=parseInt(a.substr(0,2),16),n=2;a.length-n;n+=2)i=parseInt(a.substr(n,2),16)^r,e+=String.fromCharCode(i);e=document.createTextNode(e),c.parentNode.replaceChild(e,c)}}}catch(u){}}();/* ]]&gt; */&lt;/script&gt; \nFormat settings, CABAC : Yes \nFormat settings, ReFrames : 4 frames \nDuration : 52mn 37s \nBit rate : 367 Kbps \nMaximum bit rate : 2 347 Kbps \nWidth : 720 pixels \nHeight : 404 pixels \nDisplay aspect ratio : 16:9 \nFrame rate : 23.976 fps \nStream size : 138 MiB (85%) \nTitle : Da Vincis Demons S02E03 HDTV x264 AAC E-Subs [GWC] \nWriting library : x264 core\n\nAudio \nFormat : AAC \nFormat profile : HE-AAC / LC \nDuration : 52mn 37s \nBit rate mode : Variable \nChannel(s) : 2 channels \nSampling rate : 48.0 KHz / 24.0 KHz \nStream size : 22.6 MiB (14%) \nLanguage : English \n\nText \nFormat : Timed Text \nTitle : English Subtitle by elderman \nLanguage : English","torrent":{"xt":"urn:btih:36aa9d3c4994b0cb10058d3ab41085543f43ea16","amp;dn":"Da+Vincis+Demons+S02E03+HDTV+x264+AAC+E-Subs+%5BGWC%5D.mp4","amp;tr":["udp%3A%2F%2Ftracker.openbittorrent.com%3A80","udp%3A%2F%2Fopen.demonii.com%3A1337","udp%3A%2F%2Ftracker.coppersurfer.tk%3A6969","udp%3A%2F%2Fexodus.desync.com%3A6969"],"infoHash":"36aa9d3c4994b0cb10058d3ab41085543f43ea16","infoHashBuffer":{"type":"Buffer","data":[54,170,157,60,73,148,176,203,16,5,141,58,180,16,133,84,63,67,234,22]},"announce":[],"urlList":[]}}